<svg xmlns="http://www.w3.org/2000/svg" xmlns:xlink="http://www.w3.org/1999/xlink" width="510" zoomAndPan="magnify" viewBox="0 0 382.5 382.499997" height="510" preserveAspectRatio="xMidYMid meet" version="1.0"><defs><clipPath id="4bd967f7e1"><path d="M 0.679688 0.679688 L 381.320312 0.679688 L 381.320312 381.320312 L 0.679688 381.320312 Z M 0.679688 0.679688 " clip-rule="nonzero"/></clipPath><clipPath id="4d5ecb3ab2"><path d="M 339.652344 0.691406 L 42.347656 0.691406 C 19.332031 0.691406 0.691406 19.34375 0.691406 42.347656 L 0.691406 339.652344 C 0.691406 362.652344 19.332031 381.308594 42.347656 381.308594 L 339.652344 381.308594 C 362.652344 381.308594 381.308594 362.652344 381.308594 339.652344 L 381.308594 42.347656 C 381.308594 19.34375 362.664062 0.691406 339.652344 0.691406 " clip-rule="nonzero"/></clipPath><clipPath id="f63653dfcd"><path d="M 31.917969 111 L 241 111 L 241 236 L 31.917969 236 Z M 31.917969 111 " clip-rule="nonzero"/></clipPath><clipPath id="053bf71d71"><path d="M 104.765625 235.789062 L 31.957031 193.011719 L 171.226562 111.1875 L 240.867188 152.214844 Z M 104.765625 235.789062 " clip-rule="nonzero"/></clipPath><clipPath id="4d7ece7d1a"><path d="M 171 152 L 241 152 L 241 274.878906 L 171 274.878906 Z M 171 152 " clip-rule="nonzero"/></clipPath><clipPath id="1a1a31ef8b"><path d="M 171.226562 194.980469 L 171.226562 274.570312 L 240.867188 231.535156 L 240.867188 152.214844 Z M 171.226562 194.980469 " clip-rule="nonzero"/></clipPath><clipPath id="f103a926af"><path d="M 171 231 L 309 231 L 309 353 L 171 353 Z M 171 231 " clip-rule="nonzero"/></clipPath><clipPath id="6b7ef8ea83"><path d="M 176.316406 264.054688 L 171.226562 274.558594 L 308.917969 352.613281 L 308.917969 272.308594 L 240.867188 231.523438 Z M 176.316406 264.054688 " clip-rule="nonzero"/></clipPath><clipPath id="3d86f6c90b"><path d="M 240.171875 29 L 309 29 L 309 152.242188 L 240.171875 152.242188 Z M 240.171875 29 " clip-rule="nonzero"/></clipPath><clipPath id="093ed7ee4a"><path d="M 240.867188 152.214844 L 240.867188 69.902344 L 308.917969 29.375 L 308.917969 111.1875 Z M 240.867188 152.214844 " clip-rule="nonzero"/></clipPath></defs><path fill="#ffffff" d="M 0 0 L 382 0 L 382 382 L 0 382 Z M 0 0 " fill-opacity="1" fill-rule="nonzero"/><g clip-path="url(#4bd967f7e1)"><g clip-path="url(#4d5ecb3ab2)"><rect x="-38.25" width="459" fill="#62c1e5" y="-38.25" height="458.999996" fill-opacity="1"/></g></g><g clip-path="url(#f63653dfcd)"><g clip-path="url(#053bf71d71)"><rect x="-38.25" width="459" fill="#ffffff" y="-38.25" height="458.999996" fill-opacity="1"/></g></g><g clip-path="url(#4d7ece7d1a)"><g clip-path="url(#1a1a31ef8b)"><rect x="-38.25" width="459" fill="#ffffff" y="-38.25" height="458.999996" fill-opacity="1"/></g></g><g clip-path="url(#f103a926af)"><g clip-path="url(#6b7ef8ea83)"><rect x="-38.25" width="459" fill="#ffffff" y="-38.25" height="458.999996" fill-opacity="1"/></g></g><g clip-path="url(#3d86f6c90b)"><g clip-path="url(#093ed7ee4a)"><rect x="-38.25" width="459" fill="#ffffff" y="-38.25" height="458.999996" fill-opacity="1"/></g></g></svg>