<svg xmlns="http://www.w3.org/2000/svg" xmlns:xlink="http://www.w3.org/1999/xlink" width="510" zoomAndPan="magnify" viewBox="0 0 382.5 382.499997" height="510" preserveAspectRatio="xMidYMid meet" version="1.0"><defs><clipPath id="30c552a9fd"><path d="M 5.632812 5.632812 L 376.367188 5.632812 L 376.367188 376.367188 L 5.632812 376.367188 Z M 5.632812 5.632812 " clip-rule="nonzero"/></clipPath><clipPath id="f0e6546c2e"><path d="M 335.785156 5.644531 L 46.214844 5.644531 C 23.800781 5.644531 5.644531 23.8125 5.644531 46.214844 L 5.644531 335.785156 C 5.644531 358.1875 23.800781 376.355469 46.214844 376.355469 L 335.785156 376.355469 C 358.1875 376.355469 376.355469 358.1875 376.355469 335.785156 L 376.355469 46.214844 C 376.355469 23.8125 358.195312 5.644531 335.785156 5.644531 " clip-rule="nonzero"/></clipPath><clipPath id="51a39dd6af"><path d="M 36.058594 113 L 240 113 L 240 235 L 36.058594 235 Z M 36.058594 113 " clip-rule="nonzero"/></clipPath><clipPath id="c0a8b30c38"><path d="M 107.007812 234.625 L 36.097656 192.957031 L 171.742188 113.265625 L 239.570312 153.222656 Z M 107.007812 234.625 " clip-rule="nonzero"/></clipPath><clipPath id="3a63533ebe"><path d="M 171.28125 153 L 240 153 L 240 272.695312 L 171.28125 272.695312 Z M 171.28125 153 " clip-rule="nonzero"/></clipPath><clipPath id="822a7bb5eb"><path d="M 171.742188 194.878906 L 171.742188 272.394531 L 239.570312 230.480469 L 239.570312 153.222656 Z M 171.742188 194.878906 " clip-rule="nonzero"/></clipPath><clipPath id="ba3d1ccc14"><path d="M 171.28125 230 L 306 230 L 306 349 L 171.28125 349 Z M 171.28125 230 " clip-rule="nonzero"/></clipPath><clipPath id="55b09f2d05"><path d="M 176.699219 262.152344 L 171.742188 272.382812 L 305.851562 348.40625 L 305.851562 270.191406 L 239.570312 230.46875 Z M 176.699219 262.152344 " clip-rule="nonzero"/></clipPath><clipPath id="85c4fdf9bd"><path d="M 239 33 L 306 33 L 306 153.25 L 239 153.25 Z M 239 33 " clip-rule="nonzero"/></clipPath><clipPath id="3237c82471"><path d="M 239.570312 153.222656 L 239.570312 73.054688 L 305.851562 33.582031 L 305.851562 113.265625 Z M 239.570312 153.222656 " clip-rule="nonzero"/></clipPath></defs><path fill="#ffffff" d="M 0 0 L 382 0 L 382 382 L 0 382 Z M 0 0 " fill-opacity="1" fill-rule="nonzero"/><g clip-path="url(#30c552a9fd)"><g clip-path="url(#f0e6546c2e)"><path fill="#62c1e5" d="M 0 0 L 382 0 L 382 382 L 0 382 Z M 0 0 " fill-opacity="1" fill-rule="nonzero"/></g></g><g clip-path="url(#51a39dd6af)"><g clip-path="url(#c0a8b30c38)"><path fill="#ffffff" d="M 0 0 L 382 0 L 382 382 L 0 382 Z M 0 0 " fill-opacity="1" fill-rule="nonzero"/></g></g><g clip-path="url(#3a63533ebe)"><g clip-path="url(#822a7bb5eb)"><path fill="#ffffff" d="M 0 0 L 382 0 L 382 382 L 0 382 Z M 0 0 " fill-opacity="1" fill-rule="nonzero"/></g></g><g clip-path="url(#ba3d1ccc14)"><g clip-path="url(#55b09f2d05)"><path fill="#ffffff" d="M 0 0 L 382 0 L 382 382 L 0 382 Z M 0 0 " fill-opacity="1" fill-rule="nonzero"/></g></g><g clip-path="url(#85c4fdf9bd)"><g clip-path="url(#3237c82471)"><path fill="#ffffff" d="M 0 0 L 382 0 L 382 382 L 0 382 Z M 0 0 " fill-opacity="1" fill-rule="nonzero"/></g></g></svg>